<svg width="104" height="16" viewBox="0 0 104 16" fill="none" xmlns="http://www.w3.org/2000/svg">
<path d="M1.12 14V2.48H5.776C5.888 2.48 6.02667 2.48533 6.192 2.496C6.35733 2.50133 6.51467 2.51733 6.664 2.544C7.304 2.64533 7.83733 2.864 8.264 3.2C8.696 3.536 9.01867 3.96 9.232 4.472C9.44533 4.984 9.552 5.54933 9.552 6.168C9.552 7.08533 9.31733 7.87733 8.848 8.544C8.37867 9.20533 7.67467 9.61867 6.736 9.784L6.056 9.864H2.792V14H1.12ZM7.856 14L5.584 9.312L7.272 8.88L9.768 14H7.856ZM2.792 8.28H5.712C5.81867 8.28 5.936 8.27467 6.064 8.264C6.19733 8.25333 6.32267 8.23467 6.44 8.208C6.78133 8.128 7.056 7.98133 7.264 7.768C7.472 7.54933 7.62133 7.29867 7.712 7.016C7.80267 6.73333 7.848 6.45067 7.848 6.168C7.848 5.88533 7.80267 5.60533 7.712 5.328C7.62133 5.04533 7.472 4.79733 7.264 4.584C7.056 4.36533 6.78133 4.216 6.44 4.136C6.32267 4.104 6.19733 4.08267 6.064 4.072C5.936 4.06133 5.81867 4.056 5.712 4.056H2.792V8.28ZM15.3583 14.24C14.4996 14.24 13.7449 14.0533 13.0943 13.68C12.4489 13.3013 11.9449 12.776 11.5822 12.104C11.2249 11.4267 11.0463 10.6427 11.0463 9.752C11.0463 8.808 11.2223 7.98933 11.5743 7.296C11.9316 6.60267 12.4276 6.06667 13.0623 5.688C13.6969 5.30933 14.4356 5.12 15.2783 5.12C16.1583 5.12 16.9076 5.32533 17.5263 5.736C18.1449 6.14133 18.6063 6.72 18.9103 7.472C19.2196 8.224 19.3423 9.11733 19.2783 10.152H17.6063V9.544C17.5956 8.54133 17.4036 7.8 17.0303 7.32C16.6623 6.84 16.0996 6.6 15.3423 6.6C14.5049 6.6 13.8756 6.864 13.4543 7.392C13.0329 7.92 12.8223 8.68267 12.8223 9.68C12.8223 10.6293 13.0329 11.3653 13.4543 11.888C13.8756 12.4053 14.4836 12.664 15.2783 12.664C15.8009 12.664 16.2516 12.5467 16.6303 12.312C17.0143 12.072 17.3129 11.7307 17.5263 11.288L19.1663 11.808C18.8303 12.5813 18.3209 13.1813 17.6383 13.608C16.9556 14.0293 16.1956 14.24 15.3583 14.24ZM12.2783 10.152V8.848H18.4462V10.152H12.2783ZM23.3569 14.24C22.7169 14.24 22.1809 14.1227 21.7489 13.888C21.3169 13.648 20.9889 13.3333 20.7649 12.944C20.5462 12.5493 20.4369 12.1173 20.4369 11.648C20.4369 11.2107 20.5142 10.8267 20.6689 10.496C20.8235 10.1653 21.0529 9.88533 21.3569 9.656C21.6609 9.42133 22.0342 9.232 22.4769 9.088C22.8609 8.976 23.2955 8.87733 23.7809 8.792C24.2662 8.70667 24.7755 8.62667 25.3089 8.552C25.8475 8.47733 26.3809 8.40267 26.9089 8.328L26.3009 8.664C26.3115 7.98667 26.1675 7.48533 25.8689 7.16C25.5755 6.82933 25.0689 6.664 24.3489 6.664C23.8955 6.664 23.4795 6.77067 23.1009 6.984C22.7222 7.192 22.4582 7.53867 22.3089 8.024L20.7489 7.544C20.9622 6.80267 21.3675 6.21333 21.9649 5.776C22.5675 5.33867 23.3675 5.12 24.3649 5.12C25.1382 5.12 25.8102 5.25333 26.3809 5.52C26.9569 5.78133 27.3782 6.19733 27.6449 6.768C27.7835 7.05067 27.8689 7.34933 27.9009 7.664C27.9329 7.97867 27.9489 8.31733 27.9489 8.68V14H26.4689V12.024L26.7569 12.28C26.3995 12.9413 25.9435 13.4347 25.3889 13.76C24.8395 14.08 24.1622 14.24 23.3569 14.24ZM23.6529 12.872C24.1275 12.872 24.5355 12.7893 24.8769 12.624C25.2182 12.4533 25.4929 12.2373 25.7009 11.976C25.9089 11.7147 26.0449 11.4427 26.1089 11.16C26.1995 10.904 26.2502 10.616 26.2609 10.296C26.2769 9.976 26.2849 9.72 26.2849 9.528L26.8289 9.728C26.3009 9.808 25.8209 9.88 25.3889 9.944C24.9569 10.008 24.5649 10.072 24.2129 10.136C23.8662 10.1947 23.5569 10.2667 23.2849 10.352C23.0555 10.432 22.8502 10.528 22.6689 10.64C22.4929 10.752 22.3515 10.888 22.2449 11.048C22.1435 11.208 22.0929 11.4027 22.0929 11.632C22.0929 11.856 22.1489 12.064 22.2609 12.256C22.3729 12.4427 22.5435 12.592 22.7729 12.704C23.0022 12.816 23.2955 12.872 23.6529 12.872ZM33.4583 14.24C32.6529 14.24 31.9569 14.04 31.3703 13.64C30.7889 13.24 30.3383 12.696 30.0183 12.008C29.7036 11.3147 29.5463 10.536 29.5463 9.672C29.5463 8.80267 29.7063 8.02667 30.0263 7.344C30.3463 6.656 30.7996 6.11467 31.3863 5.72C31.9783 5.32 32.6796 5.12 33.4903 5.12C34.3063 5.12 34.9916 5.32 35.5463 5.72C36.1063 6.11467 36.5276 6.656 36.8103 7.344C37.0983 8.032 37.2423 8.808 37.2423 9.672C37.2423 10.536 37.0983 11.312 36.8103 12C36.5223 12.688 36.0983 13.2347 35.5383 13.64C34.9783 14.04 34.2849 14.24 33.4583 14.24ZM33.6903 12.728C34.2396 12.728 34.6876 12.5973 35.0343 12.336C35.3809 12.0747 35.6343 11.7147 35.7943 11.256C35.9543 10.7973 36.0343 10.2693 36.0343 9.672C36.0343 9.07467 35.9516 8.54667 35.7863 8.088C35.6263 7.62933 35.3756 7.272 35.0343 7.016C34.6983 6.76 34.2689 6.632 33.7463 6.632C33.1916 6.632 32.7356 6.768 32.3783 7.04C32.0209 7.312 31.7543 7.67733 31.5783 8.136C31.4076 8.59467 31.3223 9.10667 31.3223 9.672C31.3223 10.2427 31.4076 10.76 31.5783 11.224C31.7543 11.6827 32.0156 12.048 32.3623 12.32C32.7143 12.592 33.1569 12.728 33.6903 12.728ZM36.0343 14V7.784H35.8423V2.48H37.5223V14H36.0343ZM42.9638 14V2.48H44.4758L48.6518 11.144L52.8038 2.48H54.3318V13.992H52.7478V6.112L49.0278 14H48.2678L44.5398 6.112V14H42.9638ZM60.3251 14.24C59.4611 14.24 58.7118 14.0453 58.0771 13.656C57.4425 13.2667 56.9518 12.7307 56.6051 12.048C56.2638 11.36 56.0931 10.568 56.0931 9.672C56.0931 8.77067 56.2691 7.97867 56.6211 7.296C56.9731 6.608 57.4665 6.07467 58.1011 5.696C58.7358 5.312 59.4771 5.12 60.3251 5.12C61.1891 5.12 61.9385 5.31467 62.5731 5.704C63.2078 6.09333 63.6985 6.62933 64.0451 7.312C64.3918 7.99467 64.5651 8.78133 64.5651 9.672C64.5651 10.5733 64.3891 11.368 64.0371 12.056C63.6905 12.7387 63.1998 13.2747 62.5651 13.664C61.9305 14.048 61.1838 14.24 60.3251 14.24ZM60.3251 12.664C61.1518 12.664 61.7678 12.3867 62.1731 11.832C62.5838 11.272 62.7891 10.552 62.7891 9.672C62.7891 8.77067 62.5811 8.05067 62.1651 7.512C61.7545 6.968 61.1411 6.696 60.3251 6.696C59.7651 6.696 59.3038 6.824 58.9411 7.08C58.5785 7.33067 58.3091 7.68 58.1331 8.128C57.9571 8.57067 57.8691 9.08533 57.8691 9.672C57.8691 10.5787 58.0771 11.304 58.4931 11.848C58.9091 12.392 59.5198 12.664 60.3251 12.664ZM66.3231 14V5.36H67.8111V7.456L67.6031 7.184C67.7098 6.90667 67.8485 6.65333 68.0191 6.424C68.1898 6.18933 68.3871 5.99733 68.6111 5.848C68.8298 5.688 69.0725 5.56533 69.3391 5.48C69.6111 5.38933 69.8885 5.336 70.1711 5.32C70.4538 5.29867 70.7258 5.312 70.9871 5.36V6.928C70.7045 6.85333 70.3898 6.832 70.0431 6.864C69.7018 6.896 69.3871 7.00533 69.0991 7.192C68.8271 7.368 68.6111 7.58133 68.4511 7.832C68.2965 8.08267 68.1845 8.36267 68.1151 8.672C68.0458 8.976 68.0111 9.29867 68.0111 9.64V14H66.3231ZM76.1864 14.24C75.3277 14.24 74.573 14.0533 73.9224 13.68C73.277 13.3013 72.773 12.776 72.4104 12.104C72.053 11.4267 71.8744 10.6427 71.8744 9.752C71.8744 8.808 72.0504 7.98933 72.4024 7.296C72.7597 6.60267 73.2557 6.06667 73.8904 5.688C74.525 5.30933 75.2637 5.12 76.1064 5.12C76.9864 5.12 77.7357 5.32533 78.3544 5.736C78.973 6.14133 79.4344 6.72 79.7384 7.472C80.0477 8.224 80.1704 9.11733 80.1064 10.152H78.4344V9.544C78.4237 8.54133 78.2317 7.8 77.8584 7.32C77.4904 6.84 76.9277 6.6 76.1704 6.6C75.333 6.6 74.7037 6.864 74.2824 7.392C73.861 7.92 73.6504 8.68267 73.6504 9.68C73.6504 10.6293 73.861 11.3653 74.2824 11.888C74.7037 12.4053 75.3117 12.664 76.1064 12.664C76.629 12.664 77.0797 12.5467 77.4584 12.312C77.8424 12.072 78.141 11.7307 78.3544 11.288L79.9944 11.808C79.6584 12.5813 79.149 13.1813 78.4664 13.608C77.7837 14.0293 77.0237 14.24 76.1864 14.24ZM73.1064 10.152V8.848H79.2744V10.152H73.1064Z" fill="#01966B"/>
<path d="M91 9.75H102.5M102.5 9.75L98 5.75M102.5 9.75L98 14.25" stroke="#01966B" stroke-width="2"/>
</svg>
