<svg width="121" height="27" viewBox="0 0 121 27" fill="none" xmlns="http://www.w3.org/2000/svg">
<path d="M5.472 20.126C4.632 20.126 3.876 19.982 3.204 19.694C2.532 19.394 2.004 18.974 1.62 18.434C1.236 17.894 1.044 17.264 1.044 16.544H3.24C3.288 17.084 3.498 17.528 3.87 17.876C4.254 18.224 4.788 18.398 5.472 18.398C6.18 18.398 6.732 18.23 7.128 17.894C7.524 17.546 7.722 17.102 7.722 16.562C7.722 16.142 7.596 15.8 7.344 15.536C7.104 15.272 6.798 15.068 6.426 14.924C6.066 14.78 5.562 14.624 4.914 14.456C4.098 14.24 3.432 14.024 2.916 13.808C2.412 13.58 1.98 13.232 1.62 12.764C1.26 12.296 1.08 11.672 1.08 10.892C1.08 10.172 1.26 9.542 1.62 9.002C1.98 8.462 2.484 8.048 3.132 7.76C3.78 7.472 4.53 7.328 5.382 7.328C6.594 7.328 7.584 7.634 8.352 8.246C9.132 8.846 9.564 9.674 9.648 10.73H7.38C7.344 10.274 7.128 9.884 6.732 9.56C6.336 9.236 5.814 9.074 5.166 9.074C4.578 9.074 4.098 9.224 3.726 9.524C3.354 9.824 3.168 10.256 3.168 10.82C3.168 11.204 3.282 11.522 3.51 11.774C3.75 12.014 4.05 12.206 4.41 12.35C4.77 12.494 5.262 12.65 5.886 12.818C6.714 13.046 7.386 13.274 7.902 13.502C8.43 13.73 8.874 14.084 9.234 14.564C9.606 15.032 9.792 15.662 9.792 16.454C9.792 17.09 9.618 17.69 9.27 18.254C8.934 18.818 8.436 19.274 7.776 19.622C7.128 19.958 6.36 20.126 5.472 20.126ZM21.3033 14.798C21.3033 15.17 21.2793 15.506 21.2313 15.806H13.6533C13.7133 16.598 14.0073 17.234 14.5353 17.714C15.0633 18.194 15.7113 18.434 16.4793 18.434C17.5833 18.434 18.3633 17.972 18.8193 17.048H21.0333C20.7333 17.96 20.1873 18.71 19.3953 19.298C18.6153 19.874 17.6433 20.162 16.4793 20.162C15.5313 20.162 14.6793 19.952 13.9233 19.532C13.1793 19.1 12.5913 18.5 12.1593 17.732C11.7393 16.952 11.5293 16.052 11.5293 15.032C11.5293 14.012 11.7333 13.118 12.1413 12.35C12.5613 11.57 13.1433 10.97 13.8873 10.55C14.6433 10.13 15.5073 9.92 16.4793 9.92C17.4153 9.92 18.2493 10.124 18.9813 10.532C19.7133 10.94 20.2833 11.516 20.6913 12.26C21.0993 12.992 21.3033 13.838 21.3033 14.798ZM19.1613 14.15C19.1493 13.394 18.8793 12.788 18.3513 12.332C17.8233 11.876 17.1693 11.648 16.3893 11.648C15.6813 11.648 15.0753 11.876 14.5713 12.332C14.0673 12.776 13.7673 13.382 13.6713 14.15H19.1613ZM32.4127 14.798C32.4127 15.17 32.3887 15.506 32.3407 15.806H24.7627C24.8227 16.598 25.1167 17.234 25.6447 17.714C26.1727 18.194 26.8207 18.434 27.5887 18.434C28.6927 18.434 29.4727 17.972 29.9287 17.048H32.1427C31.8427 17.96 31.2967 18.71 30.5047 19.298C29.7247 19.874 28.7527 20.162 27.5887 20.162C26.6407 20.162 25.7887 19.952 25.0327 19.532C24.2887 19.1 23.7007 18.5 23.2687 17.732C22.8487 16.952 22.6387 16.052 22.6387 15.032C22.6387 14.012 22.8427 13.118 23.2507 12.35C23.6707 11.57 24.2527 10.97 24.9967 10.55C25.7527 10.13 26.6167 9.92 27.5887 9.92C28.5247 9.92 29.3587 10.124 30.0907 10.532C30.8227 10.94 31.3927 11.516 31.8007 12.26C32.2087 12.992 32.4127 13.838 32.4127 14.798ZM30.2707 14.15C30.2587 13.394 29.9887 12.788 29.4607 12.332C28.9327 11.876 28.2787 11.648 27.4987 11.648C26.7907 11.648 26.1847 11.876 25.6807 12.332C25.1767 12.776 24.8767 13.382 24.7807 14.15H30.2707ZM52.2838 7.49V20H50.2318V11.432L46.4158 20H44.9938L41.1598 11.432V20H39.1078V7.49H41.3218L45.7138 17.3L50.0878 7.49H52.2838ZM59.2829 20.162C58.3469 20.162 57.5009 19.952 56.7449 19.532C55.9889 19.1 55.3949 18.5 54.9629 17.732C54.5309 16.952 54.3149 16.052 54.3149 15.032C54.3149 14.024 54.5369 13.13 54.9809 12.35C55.4249 11.57 56.0309 10.97 56.7989 10.55C57.5669 10.13 58.4249 9.92 59.3729 9.92C60.3209 9.92 61.1789 10.13 61.9469 10.55C62.7149 10.97 63.3209 11.57 63.7649 12.35C64.2089 13.13 64.4309 14.024 64.4309 15.032C64.4309 16.04 64.2029 16.934 63.7469 17.714C63.2909 18.494 62.6669 19.1 61.8749 19.532C61.0949 19.952 60.2309 20.162 59.2829 20.162ZM59.2829 18.38C59.8109 18.38 60.3029 18.254 60.7589 18.002C61.2269 17.75 61.6049 17.372 61.8929 16.868C62.1809 16.364 62.3249 15.752 62.3249 15.032C62.3249 14.312 62.1869 13.706 61.9109 13.214C61.6349 12.71 61.2689 12.332 60.8129 12.08C60.3569 11.828 59.8649 11.702 59.3369 11.702C58.8089 11.702 58.3169 11.828 57.8609 12.08C57.4169 12.332 57.0629 12.71 56.7989 13.214C56.5349 13.706 56.4029 14.312 56.4029 15.032C56.4029 16.1 56.6729 16.928 57.2129 17.516C57.7649 18.092 58.4549 18.38 59.2829 18.38ZM68.5114 11.522C68.8114 11.018 69.2074 10.628 69.6994 10.352C70.2034 10.064 70.7974 9.92 71.4814 9.92V12.044H70.9594C70.1554 12.044 69.5434 12.248 69.1234 12.656C68.7154 13.064 68.5114 13.772 68.5114 14.78V20H66.4594V10.082H68.5114V11.522ZM82.4576 14.798C82.4576 15.17 82.4336 15.506 82.3856 15.806H74.8076C74.8676 16.598 75.1616 17.234 75.6896 17.714C76.2176 18.194 76.8656 18.434 77.6336 18.434C78.7376 18.434 79.5176 17.972 79.9736 17.048H82.1876C81.8876 17.96 81.3416 18.71 80.5496 19.298C79.7696 19.874 78.7976 20.162 77.6336 20.162C76.6856 20.162 75.8336 19.952 75.0776 19.532C74.3336 19.1 73.7456 18.5 73.3136 17.732C72.8936 16.952 72.6836 16.052 72.6836 15.032C72.6836 14.012 72.8876 13.118 73.2956 12.35C73.7156 11.57 74.2976 10.97 75.0416 10.55C75.7976 10.13 76.6616 9.92 77.6336 9.92C78.5696 9.92 79.4036 10.124 80.1356 10.532C80.8676 10.94 81.4376 11.516 81.8456 12.26C82.2536 12.992 82.4576 13.838 82.4576 14.798ZM80.3156 14.15C80.3036 13.394 80.0336 12.788 79.5056 12.332C78.9776 11.876 78.3236 11.648 77.5436 11.648C76.8356 11.648 76.2296 11.876 75.7256 12.332C75.2216 12.776 74.9216 13.382 74.8256 14.15H80.3156Z" fill="#FF6160"/>
<path d="M115.5 8L120.5 13M120.5 13L115.5 18M120.5 13H103.5" stroke="#FE6160" stroke-linecap="round" stroke-linejoin="round"/>
</svg>
